<?xml version="1.0" encoding="utf-8"?>
<!-- Generator: Adobe Illustrator 22.1.0, SVG Export Plug-In . SVG Version: 6.00 Build 0)  -->
<svg version="1.1" id="Layer_1" xmlns="http://www.w3.org/2000/svg" xmlns:xlink="http://www.w3.org/1999/xlink" x="0px" y="0px"
	 viewBox="0 0 1366 768" style="enable-background:new 0 0 1366 768;" xml:space="preserve">
<style type="text/css">
	.st0{fill:#F2F2F2;}
</style>
<g>
	<path class="st0" d="M655.7,239.7l-1.1,1c-3.4,0.1-5.3,0.3-5.8,0.3c-2.4,0.4-4.1,1.2-5.2,2.4c-1.1,1.2-2.1,3-3,5.4
		c-1.7,4.7-4.9,15.3-9.5,31.7c-2.4,8.3-5.7,20.7-9.9,37.2l-9.6,37c-4,15.3-6.2,25-6.7,29.3h-16.4l-5.5-14.8
		c-9.1-24.4-17.4-46.2-25-65.5l-6.1-15.3c-1.4-3.5-2.7-7.2-4.2-11.1l-27.9,66.2c-2.8,6.6-6.7,16.1-11.7,28.7l-4.7,11.8h-15.6
		l-26.4-122.7c-1.4-6.3-2.4-10.4-3-12.3c-1.4-4.5-3.5-7-6.1-7.6c-1.2-0.3-4-0.6-8.3-0.9l-1.1-1v-6.7l1.2-1.2
		c12.6,0.4,22.2,0.6,28.7,0.6c7.7,0,19-0.2,33.8-0.6l1.2,1.1v6.8l-1.1,1c-4.9,0.2-7.6,0.4-8.2,0.4c-2.7,0.3-4.5,0.8-5.3,1.7
		c-0.9,0.8-1.3,2.1-1.3,3.9c0,1.6,0.7,6.1,2,13.4l3.6,19.6c1.1,5.6,3,14.7,5.7,27.3l6.3,29l13.5-32.4c2.7-6.4,6.8-16.1,12.2-29
		l12.6-30.6c2.4-5.6,4.2-10.3,5.6-14h9.8c7.3,20.5,20.8,55.4,40.7,104.6l18.9-75.8c1.4-6.1,2.1-9.8,2.1-11.3c0-3.2-1.7-5.1-5-5.6
		c-1.2-0.2-5-0.5-11.4-1l-1.1-1.1v-6.7l1.2-1.2c12.3,0.5,19.4,0.7,21.4,0.6l24.8-0.6l1.1,1.1V239.7z"/>
	<path class="st0" d="M829,298.6c0,24.2-7.9,44.2-23.6,60.1c-7.7,7.8-17,13.8-28,18.1c-11.8,4.6-25.5,6.8-41.2,6.5l-37.8-0.6
		c-10.3-0.1-18.8,0.1-25.5,0.6l-1.1-1.1v-3l0.5-1.3c5.3-3.4,8.1-5.5,8.6-6.3c0.6-1.3,1-6,1.2-14.2l0.3-24v-54.2
		c0-17-0.5-28-1.4-33.2c-0.4-2.1-1.6-3.4-3.6-4c-1.1-0.3-5.2-0.6-12.5-1.1l-1.1-1.1v-7.3l1.1-1c7.6,0.4,14.8,0.6,21.6,0.6
		c16.6,0,31.6-0.2,44.9-0.6c6.6-0.2,13.3-0.3,20-0.3c18.5,0,32.8,2.1,42.7,6.3c10.8,4.6,19.3,11.9,25.5,21.8
		C825.9,269.7,829,282.7,829,298.6z M796.2,303.7c0-19.8-4.8-34.9-14.3-45.6c-5-5.6-11.2-9.5-18.7-11.8c-7.1-2.1-17.1-3.2-29.8-3.2
		c-6.6,0-13,0.5-19,1.4c-0.7,8-1.1,27.3-1.1,58l0.2,46.7c0.1,10.4,0.4,17.3,0.9,20.8c6.3,1,12.7,1.5,19.3,1.5
		c14.2,0,25.4-2.1,33.6-6.2c8.8-4.5,15.9-12.1,21.1-22.9C793.5,331.3,796.2,318.4,796.2,303.7z"/>
</g>
</svg>
